<?xml version="1.0" encoding="UTF-8"?><svg xmlns="http://www.w3.org/2000/svg" xmlns:xlink="http://www.w3.org/1999/xlink" fill-opacity="1" color-rendering="auto" color-interpolation="auto" text-rendering="auto" stroke="black" stroke-linecap="square" width="480" stroke-miterlimit="10" shape-rendering="auto" stroke-opacity="1" fill="black" stroke-dasharray="none" font-weight="normal" stroke-width="1" height="276" font-family="'Dialog'" font-style="normal" stroke-linejoin="miter" font-size="12px" stroke-dashoffset="0" image-rendering="auto">
  <!--Generated by ySVG 2.5-->
  <defs id="genericDefs"/>
  <g>
    <defs id="defs1">
      <clipPath clipPathUnits="userSpaceOnUse" id="clipPath1">
        <path d="M0 0 L480 0 L480 276 L0 276 L0 0 Z"/>
      </clipPath>
      <clipPath clipPathUnits="userSpaceOnUse" id="clipPath2">
        <path d="M88 75 L568 75 L568 351 L88 351 L88 75 Z"/>
      </clipPath>
      <clipPath clipPathUnits="userSpaceOnUse" id="clipPath3">
        <path d="M253 90 L403 90 L403 116 L253 116 L253 90 Z"/>
      </clipPath>
      <clipPath clipPathUnits="userSpaceOnUse" id="clipPath4">
        <path d="M253 202 L403 202 L403 228 L253 228 L253 202 Z"/>
      </clipPath>
      <clipPath clipPathUnits="userSpaceOnUse" id="clipPath5">
        <path d="M103 309 L253 309 L253 335 L103 335 L103 309 Z"/>
      </clipPath>
      <clipPath clipPathUnits="userSpaceOnUse" id="clipPath6">
        <path d="M403 309 L553 309 L553 335 L403 335 L403 309 Z"/>
      </clipPath>
    </defs>
    <g fill="white" text-rendering="geometricPrecision" shape-rendering="geometricPrecision" transform="translate(-88,-75)" stroke="white">
      <rect x="88" width="480" height="276" y="75" clip-path="url(#clipPath2)" stroke="none"/>
    </g>
    <g id="y.node.0">
      <a target="_blank" xlink:type="simple" xlink:href="http://en.cppreference.com/w/cpp/io/ios_base" xlink:show="new">
        <g fill="rgb(255,204,153)" text-rendering="geometricPrecision" shape-rendering="geometricPrecision" transform="matrix(1,0,0,1,-88,-75)" stroke="rgb(255,204,153)">
          <rect x="254" width="148" height="24" y="91" stroke="none"/>
        </g>
        <g fill="rgb(255,255,218)" text-rendering="geometricPrecision" shape-rendering="geometricPrecision" transform="matrix(1,0,0,1,-88,-75)" stroke="rgb(255,255,218)">
          <rect x="253" width="1" height="26" y="90" stroke="none"/>
          <rect x="254" width="148" height="1" y="90" stroke="none"/>
          <rect fill="rgb(178,142,107)" x="254" width="149" height="1" y="115" stroke="none"/>
          <rect fill="rgb(178,142,107)" x="402" width="1" height="25" y="90" stroke="none"/>
        </g>
        <g>
          <g font-size="13px" stroke-linecap="butt" transform="matrix(1,0,0,1,-88,-75)" text-rendering="geometricPrecision" font-family="'DejaVu Sans Mono'" shape-rendering="geometricPrecision" font-weight="bold" stroke-miterlimit="1.45">
            <text x="296.6934" xml:space="preserve" y="107.8264" clip-path="url(#clipPath3)" stroke="none">ios_base</text>
          </g>
        </g>
      </a>
    </g>
    <g id="y.node.1">
      <a target="_blank" xlink:type="simple" xlink:href="http://en.cppreference.com/w/cpp/io/basic_ios" xlink:show="new">
        <g fill="rgb(255,204,153)" text-rendering="geometricPrecision" shape-rendering="geometricPrecision" transform="matrix(1,0,0,1,-88,-75)" stroke="rgb(255,204,153)">
          <rect x="254" width="148" height="24" y="203" stroke="none"/>
          <rect fill="rgb(255,255,218)" x="253" width="1" height="26" y="202" stroke="none"/>
          <rect fill="rgb(255,255,218)" x="254" width="148" height="1" y="202" stroke="none"/>
          <rect fill="rgb(178,142,107)" x="254" width="149" height="1" y="227" stroke="none"/>
          <rect fill="rgb(178,142,107)" x="402" width="1" height="25" y="202" stroke="none"/>
        </g>
        <g>
          <g font-size="13px" stroke-linecap="butt" transform="matrix(1,0,0,1,-88,-75)" text-rendering="geometricPrecision" font-family="'DejaVu Sans Mono'" shape-rendering="geometricPrecision" font-weight="bold" stroke-miterlimit="1.45">
            <text x="292.78" xml:space="preserve" y="219.8264" clip-path="url(#clipPath4)" stroke="none">basic_ios</text>
          </g>
        </g>
      </a>
    </g>
    <g id="y.node.2">
      <a target="_blank" xlink:type="simple" xlink:href="http://en.cppreference.com/w/cpp/io/basic_ostream" xlink:show="new">
        <g fill="rgb(255,204,153)" text-rendering="geometricPrecision" shape-rendering="geometricPrecision" transform="matrix(1,0,0,1,-88,-75)" stroke="rgb(255,204,153)">
          <rect x="104" width="148" height="24" y="310" stroke="none"/>
          <rect fill="rgb(255,255,218)" x="103" width="1" height="26" y="309" stroke="none"/>
          <rect fill="rgb(255,255,218)" x="104" width="148" height="1" y="309" stroke="none"/>
          <rect fill="rgb(178,142,107)" x="104" width="149" height="1" y="334" stroke="none"/>
          <rect fill="rgb(178,142,107)" x="252" width="1" height="25" y="309" stroke="none"/>
        </g>
        <g>
          <g font-size="13px" stroke-linecap="butt" transform="matrix(1,0,0,1,-88,-75)" text-rendering="geometricPrecision" font-family="'DejaVu Sans Mono'" shape-rendering="geometricPrecision" font-weight="bold" stroke-miterlimit="1.45">
            <text x="127.1267" xml:space="preserve" y="326.3264" clip-path="url(#clipPath5)" stroke="none">basic_ostream</text>
          </g>
        </g>
      </a>
    </g>
    <g id="y.node.3">
      <a target="_blank" xlink:type="simple" xlink:href="http://en.cppreference.com/w/cpp/io/basic_istream" xlink:show="new">
        <g fill="rgb(255,204,153)" text-rendering="geometricPrecision" shape-rendering="geometricPrecision" transform="matrix(1,0,0,1,-88,-75)" stroke="rgb(255,204,153)">
          <rect x="404" width="148" height="24" y="310" stroke="none"/>
          <rect fill="rgb(255,255,218)" x="403" width="1" height="26" y="309" stroke="none"/>
          <rect fill="rgb(255,255,218)" x="404" width="148" height="1" y="309" stroke="none"/>
          <rect fill="rgb(178,142,107)" x="404" width="149" height="1" y="334" stroke="none"/>
          <rect fill="rgb(178,142,107)" x="552" width="1" height="25" y="309" stroke="none"/>
        </g>
        <g>
          <g font-size="13px" stroke-linecap="butt" transform="matrix(1,0,0,1,-88,-75)" text-rendering="geometricPrecision" font-family="'DejaVu Sans Mono'" shape-rendering="geometricPrecision" font-weight="bold" stroke-miterlimit="1.45">
            <text x="427.1267" xml:space="preserve" y="326.3264" clip-path="url(#clipPath6)" stroke="none">basic_istream</text>
          </g>
        </g>
      </a>
    </g>
    <g id="y.edge.0">
      <g text-rendering="geometricPrecision" stroke-miterlimit="1.45" shape-rendering="geometricPrecision" transform="matrix(1,0,0,1,-88,-75)" stroke-linecap="butt">
        <path fill="none" d="M328 202.7383 L328 132.2583"/>
        <path fill="white" d="M328 117.2583 L322 133.2583 L334 133.2583 Z" stroke="none"/>
        <path fill="none" d="M328 117.2583 L322 133.2583 L334 133.2583 Z"/>
      </g>
      <g>
        <g text-rendering="geometricPrecision" stroke-miterlimit="1.45" shape-rendering="geometricPrecision" font-family="'DejaVu Sans Mono'" transform="matrix(1,0,0,1,-88,-75)" stroke-linecap="butt">
          <text x="354.3877" xml:space="preserve" y="164.1543" stroke="none"> </text>
        </g>
      </g>
    </g>
    <g id="y.edge.2">
      <g text-rendering="geometricPrecision" stroke-miterlimit="1.45" shape-rendering="geometricPrecision" transform="matrix(1,0,0,1,-88,-75)" stroke-linecap="butt">
        <path fill="none" d="M196.6401 309.2655 L297.1364 237.9131"/>
        <path fill="white" d="M309.3672 229.2293 L292.8475 233.5998 L299.7946 243.3844 Z" stroke="none"/>
        <path fill="none" d="M309.3672 229.2293 L292.8475 233.5998 L299.7946 243.3844 Z"/>
      </g>
      <g>
        <g text-rendering="geometricPrecision" stroke-miterlimit="1.45" shape-rendering="geometricPrecision" font-family="'DejaVu Sans Mono'" transform="matrix(1,0,0,1,-88,-75)" stroke-linecap="butt">
          <text x="291.5534" xml:space="preserve" y="280.2592" stroke="none"> </text>
        </g>
      </g>
    </g>
    <g id="y.edge.1">
      <g text-rendering="geometricPrecision" stroke-miterlimit="1.45" shape-rendering="geometricPrecision" transform="matrix(1,0,0,1,-88,-75)" stroke-linecap="butt">
        <path fill="none" d="M459.3599 309.2655 L358.8636 237.9131"/>
        <path fill="white" d="M346.6328 229.2293 L356.2054 243.3844 L363.1525 233.5998 Z" stroke="none"/>
        <path fill="none" d="M346.6328 229.2293 L356.2054 243.3844 L363.1525 233.5998 Z"/>
      </g>
      <g>
        <g text-rendering="geometricPrecision" stroke-miterlimit="1.45" shape-rendering="geometricPrecision" font-family="'DejaVu Sans Mono'" transform="matrix(1,0,0,1,-88,-75)" stroke-linecap="butt">
          <text x="441.5534" xml:space="preserve" y="266.5494" stroke="none"> </text>
        </g>
      </g>
    </g>
  </g>
</svg>
